<?xml version="1.0" standalone="no"?><!DOCTYPE svg PUBLIC "-//W3C//DTD SVG 1.1//EN" "http://www.w3.org/Graphics/SVG/1.1/DTD/svg11.dtd"><svg t="1614584277732" class="icon" viewBox="0 0 1024 1024" version="1.1" xmlns="http://www.w3.org/2000/svg" p-id="1164" xmlns:xlink="http://www.w3.org/1999/xlink" width="128" height="128"><defs><style type="text/css"></style></defs><path d="M981.53472 255.06929778c-20.16938667 0-36.51811555-16.34872889-36.51811555-36.51697778 0-12.22542222-9.94645333-22.17187555-22.17301334-22.17187555H101.15527111c-12.22656 0-22.17301333 9.94531555-22.17301333 22.17187555 0 20.16938667-16.34986667 36.51697778-36.51811556 36.51697778s-36.51811555-16.34872889-36.51811555-36.51697778c0-52.49706667 42.71217778-95.20810667 95.21152-95.20810667h821.68832c52.49934222 0 95.21152 42.71104 95.21152 95.20810667 0 20.16938667-16.34986667 36.51697778-36.51811556 36.51697778z m-58.69112889 645.58648889H101.15527111c-52.49934222 0-95.21152-42.71104-95.21152-95.20810667 0-20.16938667 16.34986667-36.51697778 36.51811556-36.51697778s36.51811555 16.34872889 36.51811555 36.51697778c0 12.22542222 9.94645333 22.17187555 22.17301333 22.17187555h821.68832c12.22656 0 22.17301333-9.94531555 22.17301334-22.17187555 0-20.16938667 16.34986667-36.51697778 36.51811556-36.51697778s36.51811555 16.34872889 36.51811555 36.51697778c0 52.49706667-42.71104 95.20810667-95.21152 95.20810667z m-789.30944-233.13066667v-39.08039111h57.56359111V399.25987555l-63.90784 21.63939556-3.17553777-40.66759111 89.27459555-30.63125333h21.12512v278.84657778h46.48846222v39.0803911H133.53528889z m261.43630222-175.84014222c-9.45607111-12.15032889-14.21653333-29.06225778-14.21653333-48.09045333 0-53.87605333 41.728-93.99523555 102.46712889-93.99523556 60.17137778 0 102.95523555 36.45212445 102.95523556 96.65763556 0 44.86371555-21.65646222 77.61351111-71.28291556 120.39509333-17.42506667 14.79793778-41.75872 38.01998222-63.38332444 61.79384889h139.42670222v39.08039111H378.60238222v-21.12853333c32.23893333-35.90485333 76.04679111-79.74684445 110.40312889-111.41802667 37.49432889-33.80451555 52.83498667-59.14737778 52.83498667-88.21077333 0-34.84558222-23.27779555-57.04931555-59.18492445-57.04931556-35.90371555 0-57.56245333 22.7328-57.56245333 50.70165333 0 12.15032889 3.70574222 23.77045333 11.63946667 35.93898667l-41.76099556 15.32472889z m331.19800889 96.60529777c16.93127111 29.57425778 38.58773333 45.95712 67.08906667 45.95712 36.96412445 0 62.32291555-23.75566222 62.32291556-58.63651555 0-34.31765333-20.06812445-52.27064889-52.80085334-52.27064889h-22.71687111v-39.06104889h22.15139555c27.47505778 0 44.93425778-14.7968 44.93425778-46.46798222 0-29.57539555-21.16152889-48.09045333-52.31047111-48.09045333-26.91185778 0-48.07338667 15.85379555-64.43918222 49.13038222l-35.34165333-21.63825778c20.56305778-43.31178667 54.88298667-67.61244445 99.78197333-67.61244444 58.09379555 0 96.64739555 32.76572445 96.64739555 85.03637333 0 32.21959111-15.30993778 54.38691555-42.2547911 69.16323555 31.70759111 12.15032889 50.68231111 35.92305778 50.6823111 72.37404445 0 60.20664889-43.80558222 98.22890667-107.7191111 98.22890667-47.54545778 0-80.27818667-22.7328-101.93237334-59.67758222l35.90599111-26.43740445z" fill="#ffffff" p-id="1165"></path></svg>