<?xml version="1.0" standalone="no"?><!DOCTYPE svg PUBLIC "-//W3C//DTD SVG 1.1//EN" "http://www.w3.org/Graphics/SVG/1.1/DTD/svg11.dtd"><svg t="1604628860249" class="icon" viewBox="0 0 1024 1024" version="1.1" xmlns="http://www.w3.org/2000/svg" p-id="1158" xmlns:xlink="http://www.w3.org/1999/xlink" width="128" height="128"><defs><style type="text/css"></style></defs><path d="M129.36900794 118.32228134c0-35.76377732 34.65910465-64.7614346 77.32708609-64.76143459h313.31278274c42.1156451 0 76.36049751 29.13574137 76.36049751 64.76143459v802.13043413h55.23363292V274.7715466h182.96140907c35.76377732 0 64.7614346 29.13574137 64.76143459 64.76143459v570.97768034h55.23363293V339.67106528c0-66.14227541-53.8527921-119.99506753-119.99506752-119.99506752H651.46492313v-101.35371642c0-32.7259275-14.08457639-63.24250969-39.63013163-86.02638326-24.71705073-21.95536909-57.30489415-34.10676833-91.96399881-34.10676833H206.69609403c-73.04647954 0-132.56071902 53.8527921-132.56071901 119.99506752v802.1304341h55.23363292V118.32228134zM6.3360906 966.57279895h1014.77992087v55.23363291H6.3360906z" fill="#ffffff" p-id="1159"></path><path d="M201.17273073 293.96523404h172.19085064v55.23363293H201.17273073zM423.76427141 293.68906587h87.26914v55.23363294h-87.26914zM201.17273073 480.37874515h172.19085064v55.23363293H201.17273073zM423.76427141 480.10257698h87.26914v55.23363294h-87.26914zM201.17273073 656.43595008h172.19085064v55.23363294H201.17273073zM423.76427141 656.02169785h87.26914v55.23363291h-87.26914zM686.67636412 403.05165906h98.03969843v55.23363293h-98.03969843zM813.29946758 402.91357497h49.71026964v55.23363293h-49.71026964zM686.67636412 575.38059378h98.03969843v55.23363292h-98.03969843zM813.29946758 575.10442562h49.71026964v55.23363291h-49.71026964zM686.67636412 750.47121013h98.03969843v55.23363293h-98.03969843zM813.29946758 750.19504197h49.71026964v55.23363293h-49.71026964z" fill="#ffffff" p-id="1160"></path></svg>