<?xml version="1.0" standalone="no"?><!DOCTYPE svg PUBLIC "-//W3C//DTD SVG 1.1//EN" "http://www.w3.org/Graphics/SVG/1.1/DTD/svg11.dtd"><svg t="1604893887442" class="icon" viewBox="0 0 1024 1024" version="1.1" xmlns="http://www.w3.org/2000/svg" p-id="1156" xmlns:xlink="http://www.w3.org/1999/xlink" width="128" height="128"><defs><style type="text/css"></style></defs><path d="M915.6032 164.19306667v-92.81173334l-421.01653333 92.81173334h-35.49973334l-421.01653333-92.81173334v92.81173334h-44.25173333v741.93493333h460.78506666v1.0208l4.48533334-1.0208h35.49973333l4.48533333 1.0208v-1.0208h531.11253334v-741.93493333h-114.5824zM82.54186667 164.19306667v-37.5456l372.0576 82.06293333v643.21173333l-372.0576-82.10453333v-605.6256zM871.17013333 126.56426667v643.16693333l-372.10026666 82.06293333v-643.16693333l372.10026666-82.06293333zM991.5296 561.35466667h-52.25173333v-52.38506667h52.25173333v52.38506667zM60.28053333 852.85653333v-42.4736l192.51413334 42.4736h-192.51413334zM900.76053333 808.6944v44.0736h-199.84426666l199.84426666-44.0736zM405.0112 327.6096l-275.8208-91.83573333 6.13013333-18.30826667 7.9968-23.8592 275.8208 91.83573333-14.13013333 42.16426667zM405.0112 446.72213333l-275.8208-91.83573333 14.0416-42.16426667 275.8208 91.83573334-14.0416 42.16426666zM405.0112 565.88586667l-275.8208-91.83573334 14.0416-42.16426666 275.8208 91.83573333-14.0416 42.16426667zM405.0112 684.91306667l-275.8208-91.792 14.0416-42.16426667 275.8208 91.792-14.0416 42.16426667zM405.0112 790.34773333l-275.8208-91.792 14.0416-42.16426666 275.8208 91.792-14.0416 42.16426666zM548.69866667 327.6096l-14.0416-42.16426667 275.776-91.83573333 7.9968 23.8592 6.176 18.30826667-275.9104 91.83573333zM548.69866667 446.72213333l-14.0416-42.16426666 275.776-91.83573334 14.0416 42.16426667-275.776 91.83573333zM548.69866667 565.88586667l-14.0416-42.16426667 275.776-91.83573333 14.0416 42.16426666-275.776 91.83573334zM548.69866667 684.91306667l-14.0416-42.16426667 275.776-91.792 14.0416 42.16426667-275.776 91.792zM548.69866667 790.34773333l-14.0416-42.16426666 275.776-91.792 14.0416 42.16426666-275.776 91.792z" fill="#ffffff" p-id="1157"></path></svg>