<?xml version="1.0" standalone="no"?><!DOCTYPE svg PUBLIC "-//W3C//DTD SVG 1.1//EN" "http://www.w3.org/Graphics/SVG/1.1/DTD/svg11.dtd"><svg t="1605518748888" class="icon" viewBox="0 0 1024 1024" version="1.1" xmlns="http://www.w3.org/2000/svg" p-id="1126" xmlns:xlink="http://www.w3.org/1999/xlink" width="128" height="128"><defs><style type="text/css"></style></defs><path d="M372.915353 961.056583c-4.060866 0.507608-7.614123 1.015216-11.674988 2.030433l-6.598907 1.015216c-7.614123 1.015216-14.720638 1.522825-21.827152 2.538041-13.197813 1.015216-26.395626 2.030433-38.578223 2.030433-11.674989 0-22.334761 0-32.994533-1.015216-4.568474-0.507608-9.136948-1.015216-13.197814-1.522825l-2.538041-0.507608-7.614123-1.522825c-8.629339-1.522825-16.751071-3.553257-24.365193-6.091298-3.553257-1.015216-6.598907-2.030433-10.152164-3.553257-1.015216-0.507608-2.030433-1.015216-3.045649-1.015217l-2.538041-1.015216c-6.091298-3.045649-12.182597-6.091298-17.258679-9.644556-2.030433-1.522825-4.060866-2.538041-6.598907-4.568474l-1.015216-1.015216c-1.015216-0.507608-2.030433-1.522825-2.538041-2.538041-4.060866-3.553257-7.614123-7.106515-10.659772-11.16738l-1.522825-1.522825c-1.522825-2.030433-2.538041-3.553257-4.060865-5.58369-2.538041-3.553257-4.568474-7.614123-6.091299-11.167381l-1.015216-2.030432c-0.507608-1.522825-1.015216-3.045649-1.522825-4.060866-2.030433-5.58369-3.553257-11.674989-4.568474-18.781503 0-1.522825 0-2.538041-0.507608-4.060866v-6.091298c0-17.258679 0.507608-34.517358 1.015217-51.776037 0.507608-20.811936 1.015216-42.639089 0.507608-63.958633 0-5.58369-0.507608-11.16738-0.507608-17.258679-0.507608-18.273895-1.015216-37.055399 0.507608-55.836901 0.507608-5.58369 1.015216-11.674989 1.522824-17.258679v-2.030433h0.507609v-2.538041c0-1.522825 0.507608-4.060866 1.015216-6.091298 0-1.015216 0.507608-2.030433 0.507608-3.04565 1.522825-10.152164 4.060866-20.811936 6.598907-30.456492 2.538041-9.136948 5.58369-17.766287 8.629339-26.395626 0-0.507608 0.507608-1.522825 0.507608-2.030433 0.507608-1.015216 1.015216-2.030433 1.015217-3.045649l1.522824-2.030433c1.522825-4.060866 3.553257-7.614123 5.583691-11.16738 3.553257-6.598907 7.614123-13.197813 11.674988-19.289112 1.015216-1.522825 2.030433-2.538041 3.045649-4.060865l0.507608-0.507608c1.015216-1.522825 2.538041-2.538041 3.553258-4.060866 1.015216-1.015216 2.030433-2.030433 2.538041-3.553257 4.060866-4.568474 8.121731-8.629339 12.690205-12.690205 2.030433-2.030433 4.060866-3.553257 6.091298-5.076082l0.507608-0.507609 2.030433-1.522824c7.614123-5.58369 15.735854-10.152164 24.365194-14.21303 1.015216-0.507608 4.060866-1.522825 4.568474-2.030433l2.030432-1.015216c2.538041-1.015216 5.076082-1.522825 7.614123-2.538041 4.060866-1.015216 7.614123-2.030433 11.167381-2.538041 0.507608 0 2.030433-0.507608 3.045649-1.015216 10.152164-3.553257 20.304328-12.182597 19.79672-26.395627-0.507608-8.121731-4.568474-16.751071-10.659772-21.827152-5.076082-4.568474-11.16738-6.598907-17.766287-5.583691-30.9641 3.553257-63.451025 19.289112-91.369476 44.669522-65.989066 59.897768-79.694487 156.343325-79.186879 226.393257 0 7.106515 0.507608 14.21303 0.507608 21.319544 0.507608 8.629339 0.507608 17.258679 0.507608 26.395627l-0.507608 49.745603v15.228246c0 11.674989 0 23.349977-0.507608 35.024966-1.522825 34.517358 12.182597 71.065148 36.54779 98.47599 18.781503 20.811936 46.192346 37.563007 78.679271 47.207563 26.395626 8.121731 55.329294 11.674989 89.339043 11.674989 15.735854 0 32.486925-1.015216 50.253212-2.538041 14.720638-1.522825 30.456492-3.553257 47.71517-6.091299 6.598907-1.015216 12.690205-5.58369 16.751071-12.182597 4.568474-7.106515 5.58369-15.735854 3.553257-22.842369-6.598907-13.197813-19.289112-20.811936-35.532574-18.273895zM938.898496 809.281732c-0.507608-18.781503-1.015216-38.578223-1.015217-57.867335 0-6.091298 0-11.674989 0.507608-17.766287v-1.015216c0.507608-19.289112 1.015216-38.578223-0.507608-58.374943-2.030433-27.410843-6.091298-51.776036-12.690205-73.603189-10.659772-38.070615-27.918451-71.065148-51.776036-97.460774-26.903235-29.948884-62.943417-51.776036-97.460774-57.359727-2.538041-0.507608-5.076082-1.015216-7.614123-1.015216-6.598907-0.507608-13.705421 2.030433-19.289112 7.106514-6.091298 5.58369-9.644556 13.705421-9.136948 21.319545 0.507608 12.182597 7.106515 21.319544 18.781504 25.888018 0.507608 0.507608 1.522825 1.015216 3.045649 1.522825h0.507608c1.015216 0 3.553257 0.507608 5.076082 1.015216 4.060866 1.015216 7.614123 2.030433 11.674989 3.553257l4.060865 1.522825c0.507608 0.507608 3.553257 1.522825 4.568474 2.030433 4.060866 2.030433 7.614123 4.060866 11.674989 6.091298 4.060866 2.538041 8.629339 5.076082 12.690205 8.121731l2.030433 1.522825c2.538041 2.030433 4.568474 4.060866 6.598906 5.58369 4.568474 4.060866 8.629339 8.629339 12.690205 13.197813 1.015216 1.015216 1.522825 2.030433 2.538041 3.04565 1.015216 1.015216 2.030433 2.538041 3.045649 3.553257l0.507609 0.507608c1.015216 1.522825 2.538041 3.045649 3.553257 5.076082 4.060866 6.091298 8.121731 12.182597 11.674988 18.781503 2.030433 3.553257 3.553257 6.598907 5.076082 10.152164l1.015217 2.538041c0.507608 1.522825 1.015216 2.538041 1.015216 2.538041l1.015217 3.04565c6.598907 17.258679 12.182597 37.055399 15.228246 57.867334 0 1.015216 0.507608 1.522825 0.507608 2.538041 0.507608 1.522825 0.507608 3.045649 0.507608 4.568474v4.568474c0.507608 6.091298 1.522825 12.690205 1.522825 18.781503 1.015216 12.690205 1.015216 25.888018 1.015216 39.59344 0 6.091298-0.507608 12.182597-0.507608 17.766287-0.507608 8.629339-0.507608 17.258679-0.507608 25.888018l0.507608 48.730387v15.735854c0 11.674989 0 23.349977 0.507608 35.024966v10.659772c0 1.015216 0 2.538041-0.507608 3.553258-0.507608 3.045649-1.015216 5.58369-1.522825 8.629339l-3.045649 10.659772c-0.507608 1.522825-1.015216 3.045649-2.030433 4.568474l-1.015216 1.522825c-2.030433 4.060866-4.060866 8.121731-6.598907 11.674988-1.015216 1.522825-2.538041 3.553257-3.553257 5.076082l-0.507608 0.507608c-0.507608 0.507608-1.015216 1.015216-1.522825 2.030433-3.553257 4.060866-7.106515 7.614123-11.16738 11.167381-0.507608 0.507608-1.522825 1.015216-2.030433 1.522824l-2.030433 1.522825c-2.030433 1.522825-4.060866 2.538041-6.091298 4.060865-5.076082 3.553257-11.16738 6.598907-16.751071 9.136948l-0.507608 0.507608c-1.015216 0.507608-1.522825 0.507608-3.045649 1.015217-0.507608 0-1.015216 0.507608-1.522825 0.507608-3.553257 1.522825-7.614123 2.538041-11.16738 4.060865-7.614123 2.538041-16.243462 4.568474-24.872802 6.091299-2.030433 0.507608-4.060866 0.507608-6.598907 1.015216l-2.030432 0.507608-15.228246 1.522825c-21.827153 1.522825-44.669522 1.015216-71.065148-1.015217-6.598907-0.507608-13.197813-1.522825-19.79672-2.030432h-2.538041l-3.553257-0.507609c-4.060866-0.507608-8.629339-1.522825-12.690205-2.030432-14.21303-2.030433-30.456492 4.060866-34.00975 19.796719-2.030433 8.121731 0 17.258679 4.568474 23.857586 4.060866 5.58369 9.136948 9.136948 15.735854 10.152164 36.54779 6.091298 68.019499 8.629339 96.445558 8.629339 22.842369 0 44.161913-2.030433 64.97385-5.58369 36.54779-6.598907 67.51189-20.304328 91.877084-41.623872 29.948884-25.38041 48.222779-64.97385 49.237995-105.582506 2.538041-20.811936 2.030433-40.608656 1.522825-59.897767zM421.138132 402.179956c28.426059 13.197813 58.882551 19.289112 89.846652 19.289112 14.21303 0 28.426059-1.522825 42.13148-4.060866 84.262961-16.751071 152.28246-87.30861 164.972665-171.571571 2.030433-12.690205 3.045649-24.365194 3.045649-35.024966-0.507608-88.323827-56.852118-168.018314-140.099863-198.474806-81.72492-29.948884-177.66287-4.060866-232.484555 63.451025-28.426059 34.517358-45.17713 75.633622-48.730387 119.795535-3.553257 43.146697 7.106515 87.30861 29.441275 124.364009 22.334761 36.040182 54.821686 65.481458 91.877084 82.232528z m-53.806469-251.773667l1.015217-2.030433v-0.507608c1.015216-1.522825 1.522825-3.553257 2.538041-5.076082 2.030433-4.060866 4.568474-8.121731 6.598906-12.182597 2.030433-3.553257 4.568474-6.598907 6.598907-10.152164 0.507608-0.507608 1.015216-1.522825 1.522824-2.030432l0.507609-0.507609c0.507608-0.507608 1.015216-1.522825 2.030432-2.538041s1.522825-2.030433 2.030433-2.538041c5.58369-6.598907 11.16738-12.182597 17.258679-17.766287 2.538041-2.030433 5.076082-4.060866 7.106515-6.091298 0 0 1.015216-1.015216 2.030433-1.522825 1.015216-0.507608 1.522825-1.015216 2.030432-1.522824 2.030433-1.522825 4.060866-2.538041 6.091299-4.060866 7.106515-4.568474 14.720638-8.629339 22.33476-12.182597l2.030433-1.015216c1.015216-0.507608 2.030433-1.015216 3.553258-1.522825 0.507608 0 1.522825-0.507608 2.030432-0.507608 4.060866-1.522825 8.121731-3.045649 12.690205-4.060865 4.060866-1.015216 8.629339-2.030433 13.197814-3.04565 2.030433-0.507608 4.568474-1.015216 6.598906-1.015216l2.030433-0.507608c10.152164-1.015216 18.781503-1.522825 27.410843-1.015217 4.060866 0 8.121731 0.507608 13.705421 1.015217h1.522825l7.614123 1.522824c8.629339 1.522825 17.258679 4.060866 25.38041 7.106515 0.507608 0 1.522825 0.507608 2.030433 0.507608 1.522825 0.507608 2.538041 1.015216 3.553257 1.522825l2.538041 1.522825c4.060866 2.030433 8.121731 4.060866 11.674988 6.091298l10.659773 6.091298 4.568473 3.04565c0.507608 0 1.015216 1.015216 2.030433 1.522824l0.507608 0.507608c1.015216 0.507608 1.522825 1.015216 2.030433 1.522825 6.598907 5.076082 12.182597 10.152164 17.258679 15.228246 3.045649 3.045649 5.58369 6.091298 8.121731 9.136948 0.507608 1.015216 1.522825 2.030433 2.030433 2.538041l0.507608 1.015216c0.507608 0.507608 1.015216 1.522825 1.522825 2.030433l1.522824 2.030433c5.076082 7.106515 9.644556 14.720638 13.197814 22.33476 1.015216 1.522825 1.522825 3.553257 2.538041 5.076082v0.507609l1.522824 2.030432c1.522825 2.538041 2.538041 6.091298 3.553258 9.136948 0.507608 1.015216 0.507608 2.030433 1.015216 3.045649 2.538041 8.121731 4.568474 16.751071 6.091298 25.38041l0.507609 1.015216v1.015217c0 2.030433 0.507608 4.568474 0.507608 6.598906 0.507608 4.060866 0.507608 8.629339 0.507608 13.705422 0 5.076082 0 9.644556-0.507608 13.705421 0 2.030433-0.507608 4.060866-0.507608 6.091299l-0.507609 3.045649c-1.522825 8.629339-3.553257 17.258679-6.091298 25.888018-0.507608 2.538041-1.522825 4.568474-2.538041 7.106515-0.507608 1.522825-1.015216 3.045649-1.522825 4.060865l-1.015216 3.04565c-1.015216 2.030433-2.030433 4.568474-3.045649 6.598906-4.060866 7.614123-8.629339 15.228246-13.705422 22.334761l-5.076082 6.091298c-2.538041 3.045649-5.58369 6.598907-8.629339 9.644556-2.538041 3.045649-5.58369 5.58369-8.629339 8.629339-1.522825 1.522825-3.045649 3.045649-5.076082 4.060866-1.015216 0.507608-1.522825 1.522825-2.538041 2.030433l-5.076082 3.553257-4.568474 3.045649c-4.060866 2.538041-7.614123 5.076082-11.674989 7.106515-3.553257 2.030433-7.106515 4.060866-11.16738 5.58369h-0.507608l-2.030433 1.015217c-1.015216 0.507608-2.538041 1.015216-4.060866 1.522824-0.507608 0-1.522825 0.507608-2.030432 0.507609-8.121731 3.045649-16.243462 5.076082-24.872802 7.106514-2.030433 0.507608-4.568474 1.015216-6.598907 1.015217l-2.030433 0.507608c-4.060866 0.507608-9.136948 1.015216-13.705421 1.015216-8.629339 0.507608-17.766287 0-27.410843-1.015216l-2.538041-0.507608c-2.030433-0.507608-4.568474-1.015216-6.598906-1.015217-4.568474-1.015216-8.629339-2.030433-13.197814-3.045649-4.060866-1.015216-8.121731-2.538041-11.674988-4.060865-1.015216-0.507608-2.030433-0.507608-3.045649-1.015217-1.015216-0.507608-2.030433-1.015216-2.538041-1.015216l-3.04565-1.522825c-7.614123-3.553257-15.735854-8.121731-22.842368-12.690205l-4.568474-3.045649-2.538041-2.030433c-0.507608 0-1.015216-0.507608-2.030433-1.522824-0.507608-0.507608-1.522825-1.015216-1.522825-1.522825-2.030433-1.522825-3.553257-3.045649-5.58369-4.568474-6.598907-5.58369-12.690205-12.182597-17.766287-18.781503l-2.030433-2.538041-1.015216-1.015217-2.030433-2.538041c-2.538041-3.553257-5.076082-7.614123-7.614123-11.674988l-6.091298-10.659772-3.045649-6.091299-1.015217-2.538041c-1.015216-2.538041-1.522825-5.076082-2.538041-7.614123-2.030433-6.091298-4.060866-11.16738-5.58369-17.258678-0.507608-2.538041-1.522825-5.58369-2.030433-8.121732 0.507608-2.030433 0-4.060866-1.015216-7.614123l-0.507608-1.015216c0-2.030433-0.507608-3.553257-0.507609-5.58369-0.507608-9.136948-0.507608-18.273895 0-27.410843 0-2.030433 0.507608-4.060866 0.507609-6.091298l0.507608-2.538041c0.507608-4.568474 1.522825-8.629339 2.538041-13.197814l1.015216-3.045649c2.030433-6.598907 4.060866-14.720638 7.614123-20.811936zM669.358542 189.999729zM626.211845 866.13385c-11.16738-40.101048-24.365194-80.709704-36.547791-119.795535v-0.507608c-6.091298-19.79672-12.690205-40.101048-18.781503-59.897768l-15.735854-51.776036 64.466241-64.466241c5.076082-5.076082 8.121731-12.182597 8.121731-19.79672s-3.045649-14.720638-8.121731-19.79672l-76.648838-76.648838c-10.659772-10.659772-28.933667-10.659772-39.593439 0l-76.648838 76.648838c-5.076082 5.076082-8.121731 12.690205-8.121732 20.811936 0 7.614123 3.045649 14.21303 8.121732 18.781504l64.466241 64.466241-71.572756 235.530204c-0.507608 2.030433-1.015216 4.568474-1.015217 6.598907-0.507608 5.58369 1.015216 10.659772 4.060866 15.228246l76.648838 119.287927c5.58369 8.629339 14.21303 13.197813 24.365194 13.197813 9.644556 0 18.781503-5.076082 23.857585-13.705421L618.597722 898.113167c5.58369-8.629339 11.16738-18.273895 7.614123-31.979317z m-103.044465-279.692118l-37.055398-37.055398 37.055398-37.055399 37.055399 37.055399-37.055399 37.055398z m45.684738 284.7682l-46.192346 72.587973-45.684738-71.572757 46.192346-150.759635 45.684738 149.744419z" fill="#ffffff" p-id="1127"></path></svg>