<?xml version="1.0" standalone="no"?><!DOCTYPE svg PUBLIC "-//W3C//DTD SVG 1.1//EN" "http://www.w3.org/Graphics/SVG/1.1/DTD/svg11.dtd"><svg t="1605149032239" class="icon" viewBox="0 0 1024 1024" version="1.1" xmlns="http://www.w3.org/2000/svg" p-id="1671" xmlns:xlink="http://www.w3.org/1999/xlink" width="128" height="128"><defs><style type="text/css"></style></defs><path d="M700.53655387 1009.67290944H147.9240565a42.71976297 42.71976297 0 0 1-42.71976297-42.71976296v-906.17679013a42.71976297 42.71976297 0 0 1 42.71976297-42.71976296h552.61249737a42.71976297 42.71976297 0 0 1 42.71976296 42.71976296v728.66970232a16.82899753 16.82899753 0 0 1-33.65799505 0V60.77635635a9.19122173 9.19122173 0 0 0-9.06176791-9.0617679H147.9240565a9.19122173 9.19122173 0 0 0-9.06176791 9.0617679v906.17679013a9.17827635 9.17827635 0 0 0 9.06176791 9.0617679h552.61249737a16.82899753 16.82899753 0 0 1 0 33.65799506z" fill="#ffffff" p-id="1672"></path><path d="M229.84243831 204.5477768m15.43089621 0l260.74589866 0q15.43089619 0 15.43089621 15.43089619l0 2.79620267q0 15.43089619-15.43089621 15.43089619l-260.74589866 0q-15.43089619 0-15.43089621-15.43089619l0-2.79620267q0-15.43089619 15.43089621-15.43089619Z" fill="#ffffff" p-id="1673"></path><path d="M218.06214005 420.03661749m15.4308962 0l352.9170236 0q15.43089619 0 15.4308962 15.4308962l0 2.79620266q0 15.43089619-15.4308962 15.43089618l-352.9170236 0q-15.43089619 0-15.4308962-15.43089618l0-2.79620266q0-15.43089619 15.4308962-15.4308962Z" fill="#ffffff" p-id="1674"></path><path d="M218.06214005 590.02243792m15.4308962 0l352.9170236 0q15.43089619 0 15.4308962 15.43089621l0 2.79620267q0 15.43089619-15.4308962 15.43089618l-352.9170236 0q-15.43089619 0-15.4308962-15.43089618l0-2.79620267q0-15.43089619 15.4308962-15.43089621Z" fill="#ffffff" p-id="1675"></path><path d="M218.06214005 744.87510597m15.4308962 1e-8l352.9170236 0q15.43089619 0 15.4308962 15.43089619l0 2.79620266q0 15.43089619-15.4308962 15.43089621l-352.9170236 0q-15.43089619 0-15.4308962-15.43089621l0-2.79620266q0-15.43089619 15.4308962-15.43089619Z" fill="#ffffff" p-id="1676"></path><path d="M878.06953245 1009.67290944H290.63395555v-33.65799506h587.4355769a9.17827635 9.17827635 0 0 0 9.0617679-9.0617679V307.20466173a9.17827635 9.17827635 0 0 0-9.0617679-9.0617679h-138.51559506v-33.65799507h138.51559506a42.71976297 42.71976297 0 0 1 42.71976296 42.71976297v659.74848475a42.71976297 42.71976297 0 0 1-42.71976296 42.71976296z" fill="#ffffff" p-id="1677"></path></svg>